M48
METRIC,LZ,000.000
;FILE_FORMAT=3:3
;TYPE=PLATED
;Layer: PTH_Through
;EasyEDA v6.5.12, 2022-10-09 20:59:30
;6618d418ddb7492eb1f763c1ca00203a,0dc1cd2b4b68440da47f955ee06510d5,10
;Gerber Generator version 0.2
;Holesize 1 = 0.600 mm
T01C0.600
;Holesize 2 = 0.701 mm
T02C0.701
;Holesize 3 = 0.800 mm
T03C0.800
;Holesize 4 = 0.813 mm
T04C0.813
;Holesize 5 = 0.839 mm
T05C0.839
;Holesize 6 = 0.915 mm
T06C0.915
;Holesize 7 = 1.000 mm
T07C1.000
;Holesize 8 = 1.200 mm
T08C1.200
;Holesize 9 = 1.301 mm
T09C1.301
;Holesize 10 = 3.000 mm
T10C3.000
%
G05
G90
T01
X024255Y037943G85X025655Y037943
X020255Y037943G85X021655Y037943
X016255Y037943G85X017655Y037943
X024255Y040543G85X025655Y040543
X020255Y040543G85X021655Y040543
X016255Y040543G85X017655Y040543
T02
X042561Y041021
X044561Y041021
T03
X034994Y040894
X037396Y040894
X052427Y057658
X057427Y057658
X057428Y045720
X052428Y045720
T04
X048895Y033782
X051384Y033782
X046406Y033782
T05
X036322Y062738
X046482Y062738
X023114Y054229
X033274Y054229
X023114Y050102
X033274Y050102
X023114Y045974
X033274Y045974
T06
X037719Y056134
X037719Y053594
X037719Y051054
X037719Y048514
X045339Y048514
X045339Y051054
X045339Y053594
X045339Y056134
T07
X023495Y058587
X023495Y063587
X029845Y058587
X029845Y063587
T08
X047117Y069537
X049657Y069527
X044577Y069537
X030607Y069537
X033147Y069527
X028067Y069537
T09
X009208Y065369
X009208Y060361
X009208Y053304
X009208Y048296
T10
X057531Y073406
X057531Y035306
X009271Y035433
X009271Y073406
M30
