G04 Layer: BottomLayer*
G04 EasyEDA v6.5.12, 2022-10-09 20:59:30*
G04 6618d418ddb7492eb1f763c1ca00203a,0dc1cd2b4b68440da47f955ee06510d5,10*
G04 Gerber Generator version 0.2*
G04 Scale: 100 percent, Rotated: No, Reflected: No *
G04 Dimensions in millimeters *
G04 leading zeros omitted , absolute positions ,4 integer and 5 decimal *
%FSLAX45Y45*%
%MOMM*%

%ADD10C,0.2032*%
%ADD11C,1.0000*%
%ADD12C,2.0000*%
%ADD13C,1.1000*%
%ADD14C,1.6000*%
%ADD15C,1.4000*%
%ADD16O,1.7999964X2.5999948*%
%ADD17R,1.8000X2.6000*%
%ADD18C,1.6256*%
%ADD19C,1.4000*%
%ADD20O,2.4999949999999997X1.1999976*%
%ADD21R,1.5240X1.5240*%
%ADD22C,1.5240*%
%ADD23R,1.2116X2.1819*%
%ADD24C,5.0000*%

%LPD*%
D10*
X4356100Y3595946D02*
G01*
X4356100Y3401984D01*
X4295140Y3595946D02*
G01*
X4295140Y3401984D01*
X4295140Y3595946D02*
G01*
X4212013Y3595946D01*
X4184304Y3586711D01*
X4175066Y3577475D01*
X4165831Y3559002D01*
X4165831Y3540528D01*
X4175066Y3522055D01*
X4184304Y3512820D01*
X4212013Y3503584D01*
X4295140Y3503584D01*
X4230484Y3503584D02*
G01*
X4165831Y3401984D01*
X3833322Y3568237D02*
G01*
X3851795Y3586711D01*
X3879504Y3595946D01*
X3916448Y3595946D01*
X3944157Y3586711D01*
X3962631Y3568237D01*
X3962631Y3549764D01*
X3953395Y3531293D01*
X3944157Y3522055D01*
X3925684Y3512820D01*
X3870266Y3494346D01*
X3851795Y3485111D01*
X3842557Y3475875D01*
X3833322Y3457402D01*
X3833322Y3429693D01*
X3851795Y3411220D01*
X3879504Y3401984D01*
X3916448Y3401984D01*
X3944157Y3411220D01*
X3962631Y3429693D01*
X3772362Y3595946D02*
G01*
X3726179Y3401984D01*
X3679997Y3595946D02*
G01*
X3726179Y3401984D01*
X3679997Y3595946D02*
G01*
X3633815Y3401984D01*
X3587635Y3595946D02*
G01*
X3633815Y3401984D01*
X3526675Y3595946D02*
G01*
X3526675Y3401984D01*
X3401059Y3595946D02*
G01*
X3401059Y3401984D01*
X3465715Y3595946D02*
G01*
X3336404Y3595946D01*
X3136900Y3549764D02*
G01*
X3146135Y3568237D01*
X3164608Y3586711D01*
X3183082Y3595946D01*
X3220026Y3595946D01*
X3238500Y3586711D01*
X3256973Y3568237D01*
X3266208Y3549764D01*
X3275444Y3522055D01*
X3275444Y3475875D01*
X3266208Y3448164D01*
X3256973Y3429693D01*
X3238500Y3411220D01*
X3220026Y3401984D01*
X3183082Y3401984D01*
X3164608Y3411220D01*
X3146135Y3429693D01*
X3136900Y3448164D01*
X3075940Y3595946D02*
G01*
X3075940Y3401984D01*
X2946631Y3595946D02*
G01*
X2946631Y3401984D01*
X3075940Y3503584D02*
G01*
X2946631Y3503584D01*
X2743431Y3531293D02*
G01*
X2688013Y3401984D01*
X2632595Y3531293D02*
G01*
X2688013Y3401984D01*
X2571635Y3559002D02*
G01*
X2553162Y3568237D01*
X2525453Y3595946D01*
X2525453Y3401984D01*
X2455255Y3448164D02*
G01*
X2464493Y3438928D01*
X2455255Y3429693D01*
X2446020Y3438928D01*
X2455255Y3448164D01*
X2329642Y3595946D02*
G01*
X2357351Y3586711D01*
X2375824Y3559002D01*
X2385059Y3512820D01*
X2385059Y3485111D01*
X2375824Y3438928D01*
X2357351Y3411220D01*
X2329642Y3401984D01*
X2311168Y3401984D01*
X2283459Y3411220D01*
X2264986Y3438928D01*
X2255751Y3485111D01*
X2255751Y3512820D01*
X2264986Y3559002D01*
X2283459Y3586711D01*
X2311168Y3595946D01*
X2329642Y3595946D01*
D11*
X3948175Y5613400D02*
G01*
X4316475Y5981700D01*
X5334000Y5981700D01*
X5499100Y5816600D01*
X5499100Y4828286D01*
X5242813Y4572000D01*
X3632200Y6273800D02*
G01*
X3582619Y6323380D01*
X3449193Y6323380D01*
X3314725Y6952742D02*
G01*
X3314725Y6457848D01*
X3449193Y6323380D01*
X3449193Y6323380D02*
G01*
X2984500Y5858687D01*
X2095500Y3794302D02*
G01*
X2095500Y4054297D01*
X2095500Y4054297D02*
G01*
X2095500Y4861305D01*
X920750Y6036055D01*
X3327400Y5010150D02*
G01*
X3327400Y5422900D01*
X4889500Y3378200D02*
G01*
X4889500Y3718737D01*
X5742762Y4572000D01*
X5742762Y4572000D02*
G01*
X5742762Y5765800D01*
X4965725Y6952742D02*
G01*
X5742762Y6175705D01*
X5742762Y5765800D01*
X3739641Y4089400D02*
G01*
X3739641Y4195063D01*
X3771900Y4227321D01*
X3771900Y4227321D02*
G01*
X4330877Y4227321D01*
X4456099Y4102100D01*
X3060700Y6953732D02*
G01*
X2984500Y6877532D01*
X2984500Y6358686D01*
X2984500Y6358686D02*
G01*
X2442463Y5816650D01*
X2349500Y5858687D02*
G01*
X2400427Y5858687D01*
X2442463Y5816650D01*
X2442463Y5816650D02*
G01*
X2460167Y5798946D01*
X2460167Y5158917D01*
X2460167Y5158917D02*
G01*
X2311400Y5010150D01*
X3771900Y4851400D02*
G01*
X3771900Y4227321D01*
X3771900Y4851400D02*
G01*
X2767685Y4851400D01*
X2460167Y5158917D01*
X2495499Y4054297D02*
G01*
X2495499Y3794302D01*
X2616606Y6953758D02*
G01*
X2616606Y6625793D01*
X2349500Y6358686D01*
X2806700Y6953758D02*
G01*
X2616606Y6953758D01*
X4640579Y3378200D02*
G01*
X4640579Y4436973D01*
X4387900Y4689652D01*
X4387900Y5213400D01*
X4533900Y5359400D01*
X3327400Y4597400D02*
G01*
X3499358Y4425442D01*
X3499358Y4089400D01*
X4533900Y5105400D02*
G01*
X4582363Y5105400D01*
X5242763Y5765800D01*
X3771900Y5613400D02*
G01*
X3948175Y5613400D01*
D12*
G01*
X920750Y6536944D03*
G01*
X920750Y6036055D03*
G01*
X920750Y5330444D03*
G01*
X920750Y4829555D03*
D13*
G01*
X4256100Y4102100D03*
G01*
X4456099Y4102100D03*
D14*
G01*
X2349500Y5858687D03*
G01*
X2349500Y6358686D03*
G01*
X2984500Y5858687D03*
G01*
X2984500Y6358686D03*
D15*
G01*
X3499358Y4089400D03*
G01*
X3739641Y4089400D03*
D16*
G01*
X4711700Y6953732D03*
G01*
X4965725Y6952742D03*
D17*
G01*
X4457700Y6953758D03*
D16*
G01*
X3060700Y6953732D03*
G01*
X3314725Y6952742D03*
D17*
G01*
X2806700Y6953758D03*
D18*
G01*
X3632200Y6273800D03*
G01*
X4648200Y6273800D03*
G01*
X2311400Y5422900D03*
G01*
X3327400Y5422900D03*
G01*
X2311400Y5010150D03*
G01*
X3327400Y5010150D03*
G01*
X2311400Y4597400D03*
G01*
X3327400Y4597400D03*
D19*
G01*
X5242763Y5765800D03*
G01*
X5742762Y5765800D03*
G01*
X5742762Y4572000D03*
G01*
X5242763Y4572000D03*
D20*
G01*
X2495499Y3794302D03*
G01*
X2095500Y3794302D03*
G01*
X1695500Y3794302D03*
G01*
X2495499Y4054297D03*
G01*
X2095500Y4054297D03*
G01*
X1695500Y4054297D03*
D21*
G01*
X3771900Y5613400D03*
D22*
G01*
X3771900Y5359400D03*
G01*
X3771900Y5105400D03*
G01*
X3771900Y4851400D03*
G01*
X4533900Y4851400D03*
G01*
X4533900Y5105400D03*
G01*
X4533900Y5359400D03*
G01*
X4533900Y5613400D03*
D23*
G01*
X4889500Y3378200D03*
G01*
X5138420Y3378200D03*
G01*
X4640579Y3378200D03*
D24*
G01*
X5753100Y7340600D03*
G01*
X5753100Y3530600D03*
G01*
X927100Y3543300D03*
G01*
X927100Y7340600D03*
M02*
