G04 Layer: BottomSolderMaskLayer*
G04 EasyEDA v6.5.12, 2022-10-09 20:59:30*
G04 6618d418ddb7492eb1f763c1ca00203a,0dc1cd2b4b68440da47f955ee06510d5,10*
G04 Gerber Generator version 0.2*
G04 Scale: 100 percent, Rotated: No, Reflected: No *
G04 Dimensions in millimeters *
G04 leading zeros omitted , absolute positions ,4 integer and 5 decimal *
%FSLAX45Y45*%
%MOMM*%

%AMMACRO1*1,1,$1,$2,$3*1,1,$1,$4,$5*1,1,$1,0-$2,0-$3*1,1,$1,0-$4,0-$5*20,1,$1,$2,$3,$4,$5,0*20,1,$1,$4,$5,0-$2,0-$3,0*20,1,$1,0-$2,0-$3,0-$4,0-$5,0*20,1,$1,0-$4,0-$5,$2,$3,0*4,1,4,$2,$3,$4,$5,0-$2,0-$3,0-$4,0-$5,$2,$3,0*%
%ADD10C,2.1016*%
%ADD11C,1.2000*%
%ADD12C,1.7016*%
%ADD13C,1.5016*%
%ADD14O,1.7999964X2.5999948*%
%ADD15MACRO1,0.1016X-0.9X1.3X0.9X1.3*%
%ADD16C,1.7272*%
%ADD17C,1.5016*%
%ADD18O,2.4999949999999997X1.1999976*%
%ADD19MACRO1,0.1016X-0.762X0.762X0.762X0.762*%
%ADD20C,1.6256*%
%ADD21MACRO1,0.1016X-0.6058X-1.0909X-0.6058X1.0909*%
%ADD22C,5.1016*%

%LPD*%
D10*
G01*
X920750Y6536944D03*
G01*
X920750Y6036055D03*
G01*
X920750Y5330444D03*
G01*
X920750Y4829555D03*
D11*
G01*
X4256100Y4102100D03*
G01*
X4456099Y4102100D03*
D12*
G01*
X2349500Y5858687D03*
G01*
X2349500Y6358686D03*
G01*
X2984500Y5858687D03*
G01*
X2984500Y6358686D03*
D13*
G01*
X3499358Y4089400D03*
G01*
X3739641Y4089400D03*
D14*
G01*
X4711700Y6953732D03*
G01*
X4965725Y6952742D03*
D15*
G01*
X4457687Y6953745D03*
D14*
G01*
X3060700Y6953732D03*
G01*
X3314725Y6952742D03*
D15*
G01*
X2806687Y6953745D03*
D16*
G01*
X3632200Y6273800D03*
G01*
X4648200Y6273800D03*
G01*
X2311400Y5422900D03*
G01*
X3327400Y5422900D03*
G01*
X2311400Y5010150D03*
G01*
X3327400Y5010150D03*
G01*
X2311400Y4597400D03*
G01*
X3327400Y4597400D03*
D17*
G01*
X5242763Y5765800D03*
G01*
X5742762Y5765800D03*
G01*
X5742762Y4572000D03*
G01*
X5242763Y4572000D03*
D18*
G01*
X2495499Y3794302D03*
G01*
X2095500Y3794302D03*
G01*
X1695500Y3794302D03*
G01*
X2495499Y4054297D03*
G01*
X2095500Y4054297D03*
G01*
X1695500Y4054297D03*
D19*
G01*
X3771900Y5613400D03*
D20*
G01*
X3771900Y5359400D03*
G01*
X3771900Y5105400D03*
G01*
X3771900Y4851400D03*
G01*
X4533900Y4851400D03*
G01*
X4533900Y5105400D03*
G01*
X4533900Y5359400D03*
G01*
X4533900Y5613400D03*
D21*
G01*
X4889500Y3378200D03*
G01*
X5138420Y3378200D03*
G01*
X4640579Y3378200D03*
D22*
G01*
X5753100Y7340600D03*
G01*
X5753100Y3530600D03*
G01*
X927100Y3543300D03*
G01*
X927100Y7340600D03*
M02*
