G04 Layer: TopLayer*
G04 EasyEDA v6.5.12, 2022-10-09 20:59:30*
G04 6618d418ddb7492eb1f763c1ca00203a,0dc1cd2b4b68440da47f955ee06510d5,10*
G04 Gerber Generator version 0.2*
G04 Scale: 100 percent, Rotated: No, Reflected: No *
G04 Dimensions in millimeters *
G04 leading zeros omitted , absolute positions ,4 integer and 5 decimal *
%FSLAX45Y45*%
%MOMM*%

%ADD10C,1.0000*%
%ADD11C,2.0000*%
%ADD12C,1.1000*%
%ADD13C,1.6000*%
%ADD14C,1.4000*%
%ADD15O,1.7999964X2.5999948*%
%ADD16R,1.8000X2.6000*%
%ADD17C,1.6256*%
%ADD18C,1.4000*%
%ADD19O,2.4999949999999997X1.1999976*%
%ADD20R,1.5240X1.5240*%
%ADD21C,1.5240*%
%ADD22R,1.2116X2.1819*%
%ADD23C,5.0000*%

%LPD*%
D10*
X4711700Y6953758D02*
G01*
X4711700Y6743700D01*
X4401820Y6433820D01*
X3572002Y6433820D01*
X3236468Y6098286D01*
X3236468Y5895847D01*
X2614168Y5273547D01*
X977645Y5273547D01*
X920750Y5330444D01*
X5138420Y3587495D02*
G01*
X5138420Y3708400D01*
X4649724Y3708400D01*
X4256024Y4102100D01*
X4648200Y6273800D02*
G01*
X4800600Y6121400D01*
X4800600Y4646676D01*
X4256024Y4102100D01*
X2349500Y6358636D02*
G01*
X1608836Y6358636D01*
X711200Y5461000D01*
X711200Y5039105D01*
X920750Y4829555D01*
X5138420Y3378200D02*
G01*
X5138420Y3587369D01*
X2311400Y5422900D02*
G01*
X3842258Y6953758D01*
X4457700Y6953758D01*
X3771900Y5105400D02*
G01*
X3470275Y4803775D01*
X2517775Y4803775D01*
X2311400Y4597400D01*
X4533900Y5613400D02*
G01*
X4292600Y5613400D01*
X3632200Y6273800D01*
X3771900Y5359400D02*
G01*
X3390900Y5359400D01*
X3327400Y5422900D01*
X5742762Y4572000D02*
G01*
X5272862Y4102100D01*
X4456099Y4102100D01*
X2984500Y6358686D02*
G01*
X2806242Y6536944D01*
X920750Y6536944D01*
X2495499Y4054297D02*
G01*
X1720240Y4829555D01*
X920750Y4829555D01*
D11*
G01*
X920750Y6536944D03*
G01*
X920750Y6036055D03*
G01*
X920750Y5330444D03*
G01*
X920750Y4829555D03*
D12*
G01*
X4256100Y4102100D03*
G01*
X4456099Y4102100D03*
D13*
G01*
X2349500Y5858687D03*
G01*
X2349500Y6358686D03*
G01*
X2984500Y5858687D03*
G01*
X2984500Y6358686D03*
D14*
G01*
X3499358Y4089400D03*
G01*
X3739641Y4089400D03*
D15*
G01*
X4711700Y6953732D03*
G01*
X4965725Y6952742D03*
D16*
G01*
X4457700Y6953758D03*
D15*
G01*
X3060700Y6953732D03*
G01*
X3314725Y6952742D03*
D16*
G01*
X2806700Y6953758D03*
D17*
G01*
X3632200Y6273800D03*
G01*
X4648200Y6273800D03*
G01*
X2311400Y5422900D03*
G01*
X3327400Y5422900D03*
G01*
X2311400Y5010150D03*
G01*
X3327400Y5010150D03*
G01*
X2311400Y4597400D03*
G01*
X3327400Y4597400D03*
D18*
G01*
X5242763Y5765800D03*
G01*
X5742762Y5765800D03*
G01*
X5742762Y4572000D03*
G01*
X5242763Y4572000D03*
D19*
G01*
X2495499Y3794302D03*
G01*
X2095500Y3794302D03*
G01*
X1695500Y3794302D03*
G01*
X2495499Y4054297D03*
G01*
X2095500Y4054297D03*
G01*
X1695500Y4054297D03*
D20*
G01*
X3771900Y5613400D03*
D21*
G01*
X3771900Y5359400D03*
G01*
X3771900Y5105400D03*
G01*
X3771900Y4851400D03*
G01*
X4533900Y4851400D03*
G01*
X4533900Y5105400D03*
G01*
X4533900Y5359400D03*
G01*
X4533900Y5613400D03*
D22*
G01*
X4889500Y3378200D03*
G01*
X5138420Y3378200D03*
G01*
X4640579Y3378200D03*
D23*
G01*
X5753100Y7340600D03*
G01*
X5753100Y3530600D03*
G01*
X927100Y3543300D03*
G01*
X927100Y7340600D03*
M02*
